<svg width="114.95999755859374px" height="124.439990234375px" xmlns="http://www.w3.org/2000/svg" viewBox="192.52000122070314 12.780004882812499 114.95999755859374 124.439990234375" style="background: rgba(0, 0, 0, 0) none repeat scroll 0% 0%;" preserveAspectRatio="xMidYMid"><defs><filter id="editing-hover" x="-100%" y="-100%" width="300%" height="300%"><feFlood flood-color="none" result="flood"></feFlood><feComposite operator="in" in2="SourceAlpha" in="flood" result="shadow"></feComposite><feOffset dx="0.8" dy="0.8" in="SourceGraphic" result="offset-1"></feOffset><feOffset dx="-0.8" dy="-0.8" in="shadow" result="offset-2"></feOffset><feMerge><feMergeNode in="offset-2"></feMergeNode><feMergeNode in="offset-1"></feMergeNode></feMerge></filter></defs><g filter="url(#editing-hover)"><g transform="translate(215.3149971961975, 97.46500015258789)"><path d="M6.21-31.17L6.21-31.17L6.21-31.17Q4.03-32.83 4.03-36.38L4.03-36.38L4.03-36.38Q4.03-39.94 6.37-41.79L6.37-41.79L6.37-41.79Q8.70-43.65 12.74-43.65L12.74-43.65L12.74-43.65Q15.30-43.65 21.38-42.75L21.38-42.75L25.73-42.11L25.73-42.11Q27.90-41.86 30.18-41.86L30.18-41.86L30.18-41.86Q32.45-41.86 33.98-42.82L33.98-42.82L33.98-42.82Q36.29-40.77 36.29-37.82L36.29-37.82L36.29-37.82Q36.29-34.88 33.66-32.77L33.66-32.77L33.66-32.77Q30.98-30.53 27.52-30.53L27.52-30.53L27.52-30.53Q25.86-30.53 23.17-30.98L23.17-30.98L23.17-30.98Q20.03-21.12 20.03-14.27L20.03-14.27L20.03-14.27Q20.03-7.42 23.49-3.84L23.49-3.84L23.49-3.84Q21.89-0.96 19.52 0.16L19.52 0.16L19.52 0.16Q17.15 1.28 13.60 1.28L13.60 1.28L13.60 1.28Q10.05 1.28 7.84-0.67L7.84-0.67L7.84-0.67Q5.63-2.62 5.63-6.66L5.63-6.66L5.63-6.66Q5.63-11.33 8.19-19.01L8.19-19.01L8.19-19.01Q10.75-26.62 14.59-32.45L14.59-32.45L14.59-32.45Q12.74-32.64 10.82-32.64L10.82-32.64L10.82-32.64Q6.85-32.64 6.21-31.17ZM45.25 1.28L45.25 1.28L45.25 1.28Q31.17 1.28 31.17-11.97L31.17-11.97L31.17-11.97Q31.17-21.38 36.35-27.46L36.35-27.46L36.35-27.46Q41.86-33.92 51.39-33.92L51.39-33.92L51.39-33.92Q58.30-33.92 61.82-30.72L61.82-30.72L61.82-30.72Q65.34-27.52 65.34-20.80L65.34-20.80L65.34-20.80Q65.34-10.56 59.84-4.61L59.84-4.61L59.84-4.61Q54.46 1.28 45.25 1.28ZM46.91-26.56L46.91-26.56L46.91-26.56Q46.14-24.83 45.54-22.24L45.54-22.24L45.54-22.24Q44.93-19.65 44.16-15.55L44.16-15.55L44.16-15.55Q43.39-11.46 43.39-6.40L43.39-6.40L43.39-6.40Q43.39-4.74 43.94-3.65L43.94-3.65L43.94-3.65Q44.48-2.56 45.95-2.56L45.95-2.56L45.95-2.56Q47.42-2.56 48.35-3.26L48.35-3.26L48.35-3.26Q49.28-3.97 49.98-5.63L49.98-5.63L49.98-5.63Q51.26-8.58 52.29-14.05L52.29-14.05L52.29-14.05Q53.31-19.52 53.41-21.89L53.41-21.89L53.41-21.89Q53.50-24.26 53.50-26.02L53.50-26.02L53.50-26.02Q53.50-27.78 52.99-28.93L52.99-28.93L52.99-28.93Q52.48-30.08 51.04-30.08L51.04-30.08L51.04-30.08Q49.60-30.08 48.64-29.18L48.64-29.18L48.64-29.18Q47.68-28.29 46.91-26.56Z" fill="#f5e64e"></path></g></g><style>text {
  font-size: 64px;
  font-family: Arial Black;
  dominant-baseline: central;
  text-anchor: middle;
}</style></svg>