<svg width="543.760009765625px" height="124.439990234375px" xmlns="http://www.w3.org/2000/svg" viewBox="-21.8800048828125 12.780004882812499 543.760009765625 124.439990234375" style="background: rgba(0, 0, 0, 0) none repeat scroll 0% 0%;" preserveAspectRatio="xMidYMid"><defs><filter id="editing-hover" x="-100%" y="-100%" width="300%" height="300%"><feFlood flood-color="none" result="flood"></feFlood><feComposite operator="in" in2="SourceAlpha" in="flood" result="shadow"></feComposite><feOffset dx="0.8" dy="0.8" in="SourceGraphic" result="offset-1"></feOffset><feOffset dx="-0.8" dy="-0.8" in="shadow" result="offset-2"></feOffset><feMerge><feMergeNode in="offset-2"></feMergeNode><feMergeNode in="offset-1"></feMergeNode></feMerge></filter></defs><g filter="url(#editing-hover)"><g transform="translate(57.61499643325806, 104.79000091552734)"><path d="M2.69-39.68L2.69-39.68L2.69-39.68Q4.54-43.52 9.70-43.52L9.70-43.52L9.70-43.52Q14.85-43.52 17.25-40.54L17.25-40.54L17.25-40.54Q19.65-37.57 19.65-30.72L19.65-30.72L19.65-7.87L35.20-42.18L42.82-42.18L22.91 0L7.94 0L6.02-30.72L6.02-30.72Q5.82-34.11 4.90-36.42L4.90-36.42L4.90-36.42Q3.97-38.72 2.69-39.68ZM55.62-3.52L55.62-3.52L55.62-3.52Q53.63 1.28 47.30 1.28L47.30 1.28L47.30 1.28Q44.03 1.28 41.98-0.96L41.98-0.96L41.98-0.96Q40.26-2.94 40.26-4.93L40.26-4.93L40.26-4.93Q40.26-10.11 42.62-20.22L42.62-20.22L44.99-32.64L57.98-33.92L54.08-13.70L54.08-13.70Q52.99-8.96 52.99-7.30L52.99-7.30L52.99-7.30Q52.99-3.65 55.62-3.52ZM46.14-41.54L46.14-41.54L46.14-41.54Q46.14-44.03 48.22-45.38L48.22-45.38L48.22-45.38Q50.30-46.72 53.31-46.72L53.31-46.72L53.31-46.72Q56.32-46.72 58.14-45.38L58.14-45.38L58.14-45.38Q59.97-44.03 59.97-41.54L59.97-41.54L59.97-41.54Q59.97-39.04 57.95-37.76L57.95-37.76L57.95-37.76Q55.94-36.48 52.93-36.48L52.93-36.48L52.93-36.48Q49.92-36.48 48.03-37.76L48.03-37.76L48.03-37.76Q46.14-39.04 46.14-41.54ZM88.13 1.28L88.13 1.28L88.13 1.28Q80.38 1.28 80.38-4.74L80.38-4.74L80.38-4.74Q80.45-6.40 80.96-9.22L80.96-9.22L82.11-15.10L82.11-15.10Q83.84-23.42 83.84-25.28L83.84-25.28L83.84-25.28Q83.84-28.99 81.66-28.99L81.66-28.99L81.66-28.99Q78.02-28.99 76.10-19.46L76.10-19.46L72.32 0L59.46 1.28L66.11-32.70L76.61-33.92L75.58-27.65L75.58-27.65Q78.59-33.92 87.81-33.92L87.81-33.92L87.81-33.92Q92.29-33.92 94.18-32.03L94.18-32.03L94.18-32.03Q96.06-30.14 96.06-25.92L96.06-25.92L96.06-25.92Q96.06-21.95 94.02-12.67L94.02-12.67L94.02-12.67Q93.06-8.51 93.06-6.94L93.06-6.94L93.06-6.94Q93.06-5.38 93.92-4.48L93.92-4.48L93.92-4.48Q94.78-3.58 96.06-3.46L96.06-3.46L96.06-3.46Q95.42-1.28 93.22 0L93.22 0L93.22 0Q91.01 1.28 88.13 1.28ZM121.54-7.23L121.54-7.23L121.54-7.23Q118.21-3.78 112.13-3.78L112.13-3.78L112.13-3.78Q104.51-3.78 102.91-9.34L102.91-9.34L102.91-9.34Q102.40-11.01 102.40-12.86L102.40-12.86L102.40-12.86Q102.40-14.72 102.78-16.64L102.78-16.64L105.79-32.64L118.78-33.92L115.26-15.30L115.26-15.30Q115.14-14.46 114.94-13.57L114.94-13.57L114.94-13.57Q114.75-12.67 114.75-11.74L114.75-11.74L114.75-11.74Q114.75-10.82 115.07-10.21L115.07-10.21L115.07-10.21Q115.39-9.60 115.84-9.22L115.84-9.22L115.84-9.22Q116.61-8.70 117.98-8.70L117.98-8.70L117.98-8.70Q119.36-8.70 120.54-10.37L120.54-10.37L120.54-10.37Q121.73-12.03 122.30-14.91L122.30-14.91L125.82-32.64L138.43-33.92L133.63-8.77L133.63-8.77Q131.26 3.52 126.40 8.38L126.40 8.38L126.40 8.38Q123.90 10.88 120.67 11.87L120.67 11.87L120.67 11.87Q117.44 12.86 113.28 12.86L113.28 12.86L113.28 12.86Q106.56 12.86 102.72 10.75L102.72 10.75L102.72 10.75Q98.88 8.64 98.88 5.12L98.88 5.12L98.88 5.12Q98.88 2.50 100.86 0.99L100.86 0.99L100.86 0.99Q102.85-0.51 105.92-0.51L105.92-0.51L105.92-0.51Q108.61-0.51 110.66 0.64L110.66 0.64L110.66 0.64Q111.87 1.34 112.45 2.24L112.45 2.24L112.45 2.24Q110.98 3.52 110.98 5.63L110.98 5.63L110.98 5.63Q110.98 8.45 113.54 8.45L113.54 8.45L113.54 8.45Q117.76 8.45 120.19-1.28L120.19-1.28L120.19-1.28Q120.90-4.16 121.54-7.23ZM156.03-3.52L156.03-3.52L156.03-3.52Q154.05 1.28 147.71 1.28L147.71 1.28L147.71 1.28Q144.51 1.28 142.46-0.96L142.46-0.96L142.46-0.96Q140.80-2.82 140.80-4.93L140.80-4.93L140.80-4.93Q140.80-9.73 143.04-20.22L143.04-20.22L147.71-44.80L160.70-46.08L154.50-13.70L154.50-13.70Q153.41-8.96 153.41-7.30L153.41-7.30L153.41-7.30Q153.41-3.65 156.03-3.52ZM171.39-29.50L164.61-29.50L164.61-29.50Q166.98-37.70 167.10-46.34L167.10-46.34L168.96-46.59L168.96-46.59Q169.92-46.72 170.62-46.72L170.62-46.72L170.62-46.72Q173.44-46.72 174.98-45.34L174.98-45.34L174.98-45.34Q176.51-43.97 176.51-41.54L176.51-41.54L176.51-41.54Q176.51-38.98 175.36-36.16L175.36-36.16L175.36-36.16Q173.31-31.17 171.39-29.50L171.39-29.50ZM194.88-22.46L194.88-22.46L194.88-22.46Q195.78-24.83 195.78-26.88L195.78-26.88L195.78-26.88Q195.78-30.66 192.70-30.66L192.70-30.66L192.70-30.66Q191.10-30.66 189.79-29.22L189.79-29.22L189.79-29.22Q188.48-27.78 188.48-25.98L188.48-25.98L188.48-25.98Q188.48-24.70 189.50-23.68L189.50-23.68L189.50-23.68Q190.98-22.27 194.75-19.97L194.75-19.97L194.75-19.97Q198.53-17.66 199.97-15.78L199.97-15.78L199.97-15.78Q201.41-13.89 201.41-11.30L201.41-11.30L201.41-11.30Q201.41-8.70 200.16-6.34L200.16-6.34L200.16-6.34Q198.91-3.97 196.67-2.30L196.67-2.30L196.67-2.30Q191.87 1.28 184.19 1.28L184.19 1.28L184.19 1.28Q180.03 1.28 176.83-0.90L176.83-0.90L176.83-0.90Q173.63-3.01 173.63-5.50L173.63-5.50L173.63-5.50Q173.63-8 175.46-9.47L175.46-9.47L175.46-9.47Q177.28-10.94 179.97-10.94L179.97-10.94L179.97-10.94Q182.66-10.94 184.32-9.92L184.32-9.92L184.32-9.92Q183.49-7.81 183.49-6.40L183.49-6.40L183.49-6.40Q183.49-2.18 187.07-2.18L187.07-2.18L187.07-2.18Q188.61-2.18 189.63-3.14L189.63-3.14L189.63-3.14Q190.66-4.10 190.66-5.76L190.66-5.76L190.66-5.76Q190.66-9.02 185.15-12.48L185.15-12.48L185.15-12.48Q180.67-15.42 179.65-16.58L179.65-16.58L179.65-16.58Q177.92-18.62 177.92-21.18L177.92-21.18L177.92-21.18Q177.92-23.74 179.14-26.18L179.14-26.18L179.14-26.18Q180.35-28.61 182.59-30.34L182.59-30.34L182.59-30.34Q187.26-33.92 195.39-33.92L195.39-33.92L195.39-33.92Q199.55-33.92 202.02-32.26L202.02-32.26L202.02-32.26Q204.48-30.59 204.48-27.78L204.48-27.78L204.48-27.78Q204.48-24.96 202.78-23.36L202.78-23.36L202.78-23.36Q201.09-21.76 198.02-21.76L198.02-21.76L198.02-21.76Q195.90-21.76 194.88-22.46ZM221.63-39.68L221.63-39.68L221.63-39.68Q223.49-43.52 228.64-43.52L228.64-43.52L228.64-43.52Q233.79-43.52 236.19-40.54L236.19-40.54L236.19-40.54Q238.59-37.57 238.59-30.72L238.59-30.72L238.59-7.87L254.14-42.18L261.76-42.18L241.86 0L226.88 0L224.96-30.72L224.96-30.72Q224.77-34.11 223.84-36.42L223.84-36.42L223.84-36.42Q222.91-38.72 221.63-39.68ZM274.56-3.52L274.56-3.52L274.56-3.52Q272.58 1.28 266.24 1.28L266.24 1.28L266.24 1.28Q262.98 1.28 260.93-0.96L260.93-0.96L260.93-0.96Q259.20-2.94 259.20-4.93L259.20-4.93L259.20-4.93Q259.20-10.11 261.57-20.22L261.57-20.22L263.94-32.64L276.93-33.92L273.02-13.70L273.02-13.70Q271.94-8.96 271.94-7.30L271.94-7.30L271.94-7.30Q271.94-3.65 274.56-3.52ZM265.09-41.54L265.09-41.54L265.09-41.54Q265.09-44.03 267.17-45.38L267.17-45.38L267.17-45.38Q269.25-46.72 272.26-46.72L272.26-46.72L272.26-46.72Q275.26-46.72 277.09-45.38L277.09-45.38L277.09-45.38Q278.91-44.03 278.91-41.54L278.91-41.54L278.91-41.54Q278.91-39.04 276.90-37.76L276.90-37.76L276.90-37.76Q274.88-36.48 271.87-36.48L271.87-36.48L271.87-36.48Q268.86-36.48 266.98-37.76L266.98-37.76L266.98-37.76Q265.09-39.04 265.09-41.54ZM279.17-3.07L279.17-3.07L287.10-44.80L300.10-46.08L298.11-36.29L298.11-36.29Q297.41-33.28 296.51-31.17L296.51-31.17L296.51-31.17Q297.92-32.96 300.99-33.66L300.99-33.66L300.99-33.66Q301.89-33.92 302.98-33.92L302.98-33.92L302.98-33.92Q308.93-33.92 312.19-30.30L312.19-30.30L312.19-30.30Q315.46-26.69 315.46-19.71L315.46-19.71L315.46-19.71Q315.46-10.62 310.27-4.93L310.27-4.93L310.27-4.93Q304.70 1.28 294.59 1.28L294.59 1.28L294.59 1.28Q287.62 1.28 282.37-1.02L282.37-1.02L282.37-1.02Q280.51-1.86 279.17-3.07ZM295.42-22.40L292.03-3.65L292.03-3.65Q293.38-2.50 295.04-2.50L295.04-2.50L295.04-2.50Q296.70-2.50 297.66-3.14L297.66-3.14L297.66-3.14Q298.62-3.78 299.33-5.06L299.33-5.06L299.33-5.06Q301.25-8.51 302.78-19.07L302.78-19.07L302.78-19.07Q303.23-22.08 303.23-25.09L303.23-25.09L303.23-25.09Q303.23-28.10 302.56-29.06L302.56-29.06L302.56-29.06Q301.89-30.02 300.61-30.02L300.61-30.02L300.61-30.02Q296.70-30.02 295.42-22.40L295.42-22.40ZM345.22-10.82L345.22-10.82L345.22-10.82Q346.82-9.73 346.82-7.33L346.82-7.33L346.82-7.33Q346.82-4.93 345.60-3.39L345.60-3.39L345.60-3.39Q344.38-1.86 342.40-0.83L342.40-0.83L342.40-0.83Q338.30 1.28 333.89 1.28L333.89 1.28L333.89 1.28Q329.47 1.28 326.88 0.32L326.88 0.32L326.88 0.32Q324.29-0.64 322.56-2.43L322.56-2.43L322.56-2.43Q319.17-5.82 319.17-12.03L319.17-12.03L319.17-12.03Q319.17-21.70 324.42-27.58L324.42-27.58L324.42-27.58Q330.05-33.92 339.84-33.92L339.84-33.92L339.84-33.92Q345.92-33.92 348.93-31.36L348.93-31.36L348.93-31.36Q351.17-29.44 351.17-26.30L351.17-26.30L351.17-26.30Q351.17-15.04 331.71-15.04L331.71-15.04L331.71-15.04Q331.46-13.38 331.46-11.97L331.46-11.97L331.46-11.97Q331.46-9.02 332.77-7.90L332.77-7.90L332.77-7.90Q334.08-6.78 336.51-6.78L336.51-6.78L336.51-6.78Q338.94-6.78 341.54-7.90L341.54-7.90L341.54-7.90Q344.13-9.02 345.22-10.82ZM332.16-17.79L332.16-17.79L332.16-17.79Q336.70-17.79 339.33-20.61L339.33-20.61L339.33-20.61Q341.95-23.30 341.95-27.58L341.95-27.58L341.95-27.58Q341.95-29.06 341.41-29.86L341.41-29.86L341.41-29.86Q340.86-30.66 339.78-30.66L339.78-30.66L339.78-30.66Q338.69-30.66 337.76-30.24L337.76-30.24L337.76-30.24Q336.83-29.82 335.87-28.42L335.87-28.42L335.87-28.42Q333.50-25.22 332.16-17.79ZM372.48-22.46L372.48-22.46L372.48-22.46Q373.38-24.83 373.38-26.88L373.38-26.88L373.38-26.88Q373.38-30.66 370.30-30.66L370.30-30.66L370.30-30.66Q368.70-30.66 367.39-29.22L367.39-29.22L367.39-29.22Q366.08-27.78 366.08-25.98L366.08-25.98L366.08-25.98Q366.08-24.70 367.10-23.68L367.10-23.68L367.10-23.68Q368.58-22.27 372.35-19.97L372.35-19.97L372.35-19.97Q376.13-17.66 377.57-15.78L377.57-15.78L377.57-15.78Q379.01-13.89 379.01-11.30L379.01-11.30L379.01-11.30Q379.01-8.70 377.76-6.34L377.76-6.34L377.76-6.34Q376.51-3.97 374.27-2.30L374.27-2.30L374.27-2.30Q369.47 1.28 361.79 1.28L361.79 1.28L361.79 1.28Q357.63 1.28 354.43-0.90L354.43-0.90L354.43-0.90Q351.23-3.01 351.23-5.50L351.23-5.50L351.23-5.50Q351.23-8 353.06-9.47L353.06-9.47L353.06-9.47Q354.88-10.94 357.57-10.94L357.57-10.94L357.57-10.94Q360.26-10.94 361.92-9.92L361.92-9.92L361.92-9.92Q361.09-7.81 361.09-6.40L361.09-6.40L361.09-6.40Q361.09-2.18 364.67-2.18L364.67-2.18L364.67-2.18Q366.21-2.18 367.23-3.14L367.23-3.14L367.23-3.14Q368.26-4.10 368.26-5.76L368.26-5.76L368.26-5.76Q368.26-9.02 362.75-12.48L362.75-12.48L362.75-12.48Q358.27-15.42 357.25-16.58L357.25-16.58L357.25-16.58Q355.52-18.62 355.52-21.18L355.52-21.18L355.52-21.18Q355.52-23.74 356.74-26.18L356.74-26.18L356.74-26.18Q357.95-28.61 360.19-30.34L360.19-30.34L360.19-30.34Q364.86-33.92 372.99-33.92L372.99-33.92L372.99-33.92Q377.15-33.92 379.62-32.26L379.62-32.26L379.62-32.26Q382.08-30.59 382.08-27.78L382.08-27.78L382.08-27.78Q382.08-24.96 380.38-23.36L380.38-23.36L380.38-23.36Q378.69-21.76 375.62-21.76L375.62-21.76L375.62-21.76Q373.50-21.76 372.48-22.46Z" fill="#f5e64e"></path></g></g><style>text {
  font-size: 64px;
  font-family: Arial Black;
  dominant-baseline: central;
  text-anchor: middle;
}</style></svg>