<svg width="404.59999999999997px" height="124.439990234375px" xmlns="http://www.w3.org/2000/svg" viewBox="47.70000000000002 12.780004882812499 404.59999999999997 124.439990234375" style="background: rgba(0, 0, 0, 0) none repeat scroll 0% 0%;" preserveAspectRatio="xMidYMid"><defs><filter id="editing-hover" x="-100%" y="-100%" width="300%" height="300%"><feFlood flood-color="none" result="flood"></feFlood><feComposite operator="in" in2="SourceAlpha" in="flood" result="shadow"></feComposite><feOffset dx="0.8" dy="0.8" in="SourceGraphic" result="offset-1"></feOffset><feOffset dx="-0.8" dy="-0.8" in="shadow" result="offset-2"></feOffset><feMerge><feMergeNode in="offset-2"></feMergeNode><feMergeNode in="offset-1"></feMergeNode></feMerge></filter></defs><g filter="url(#editing-hover)"><g transform="translate(108.68499994277954, 98.68000030517578)"><path d="M2.69-39.68L2.69-39.68L2.69-39.68Q3.58-41.47 5.54-42.46L5.54-42.46L5.54-42.46Q7.49-43.46 10.18-43.46L10.18-43.46L10.18-43.46Q14.40-43.46 16.93-40.42L16.93-40.42L16.93-40.42Q19.46-37.38 19.46-30.72L19.46-30.72L19.46-7.87L34.11-42.18L41.66-42.18L43.39-9.79L43.20-7.94L58.43-42.18L67.20-42.18L46.72 0L33.09 0L31.81-19.46L23.36 0L7.94 0L6.02-30.72L6.02-30.72Q5.82-34.18 4.90-36.45L4.90-36.45L4.90-36.45Q3.97-38.72 2.69-39.68ZM89.28-10.82L89.28-10.82L89.28-10.82Q90.88-9.73 90.88-7.33L90.88-7.33L90.88-7.33Q90.88-4.93 89.66-3.39L89.66-3.39L89.66-3.39Q88.45-1.86 86.46-0.83L86.46-0.83L86.46-0.83Q82.37 1.28 77.95 1.28L77.95 1.28L77.95 1.28Q73.54 1.28 70.94 0.32L70.94 0.32L70.94 0.32Q68.35-0.64 66.62-2.43L66.62-2.43L66.62-2.43Q63.23-5.82 63.23-12.03L63.23-12.03L63.23-12.03Q63.23-21.70 68.48-27.58L68.48-27.58L68.48-27.58Q74.11-33.92 83.90-33.92L83.90-33.92L83.90-33.92Q89.98-33.92 92.99-31.36L92.99-31.36L92.99-31.36Q95.23-29.44 95.23-26.30L95.23-26.30L95.23-26.30Q95.23-15.04 75.78-15.04L75.78-15.04L75.78-15.04Q75.52-13.38 75.52-11.97L75.52-11.97L75.52-11.97Q75.52-9.02 76.83-7.90L76.83-7.90L76.83-7.90Q78.14-6.78 80.58-6.78L80.58-6.78L80.58-6.78Q83.01-6.78 85.60-7.90L85.60-7.90L85.60-7.90Q88.19-9.02 89.28-10.82ZM76.22-17.79L76.22-17.79L76.22-17.79Q80.77-17.79 83.39-20.61L83.39-20.61L83.39-20.61Q86.02-23.30 86.02-27.58L86.02-27.58L86.02-27.58Q86.02-29.06 85.47-29.86L85.47-29.86L85.47-29.86Q84.93-30.66 83.84-30.66L83.84-30.66L83.84-30.66Q82.75-30.66 81.82-30.24L81.82-30.24L81.82-30.24Q80.90-29.82 79.94-28.42L79.94-28.42L79.94-28.42Q77.57-25.22 76.22-17.79ZM112.70-3.52L112.70-3.52L112.70-3.52Q110.72 1.28 104.38 1.28L104.38 1.28L104.38 1.28Q101.18 1.28 99.14-0.96L99.14-0.96L99.14-0.96Q97.47-2.82 97.47-4.93L97.47-4.93L97.47-4.93Q97.47-9.73 99.71-20.22L99.71-20.22L104.38-44.80L117.38-46.08L111.17-13.70L111.17-13.70Q110.08-8.96 110.08-7.30L110.08-7.30L110.08-7.30Q110.08-3.65 112.70-3.52ZM149.57-26.62L149.57-26.62L149.57-26.62Q149.57-23.94 147.33-22.27L147.33-22.27L147.33-22.27Q145.09-20.61 141.44-20.61L141.44-20.61L141.44-20.61Q139.90-20.61 139.01-21.06L139.01-21.06L139.01-21.06Q139.71-22.72 139.94-24.80L139.94-24.80L139.94-24.80Q140.16-26.88 140.16-27.46L140.16-27.46L140.16-27.46Q140.16-30.14 138.30-30.14L138.30-30.14L138.30-30.14Q137.02-30.14 135.58-28.54L135.58-28.54L135.58-28.54Q134.14-26.94 132.93-24.45L132.93-24.45L132.93-24.45Q130.24-18.69 130.24-12.86L130.24-12.86L130.24-12.86Q130.24-9.66 131.46-8.22L131.46-8.22L131.46-8.22Q132.67-6.78 135.36-6.78L135.36-6.78L135.36-6.78Q139.07-6.78 142.02-9.86L142.02-9.86L142.02-9.86Q142.85-10.82 143.30-11.90L143.30-11.90L143.30-11.90Q145.73-10.62 145.73-7.10L145.73-7.10L145.73-7.10Q145.73-3.52 141.76-1.15L141.76-1.15L141.76-1.15Q137.66 1.28 131.14 1.28L131.14 1.28L131.14 1.28Q118.14 1.28 118.14-12.48L118.14-12.48L118.14-12.48Q118.14-22.53 123.84-28.29L123.84-28.29L123.84-28.29Q129.34-33.92 139.46-33.92L139.46-33.92L139.46-33.92Q149.57-33.92 149.57-26.62ZM165.25 1.28L165.25 1.28L165.25 1.28Q151.17 1.28 151.17-11.97L151.17-11.97L151.17-11.97Q151.17-21.38 156.35-27.46L156.35-27.46L156.35-27.46Q161.86-33.92 171.39-33.92L171.39-33.92L171.39-33.92Q178.30-33.92 181.82-30.72L181.82-30.72L181.82-30.72Q185.34-27.52 185.34-20.80L185.34-20.80L185.34-20.80Q185.34-10.56 179.84-4.61L179.84-4.61L179.84-4.61Q174.46 1.28 165.25 1.28ZM166.91-26.56L166.91-26.56L166.91-26.56Q166.14-24.83 165.54-22.24L165.54-22.24L165.54-22.24Q164.93-19.65 164.16-15.55L164.16-15.55L164.16-15.55Q163.39-11.46 163.39-6.40L163.39-6.40L163.39-6.40Q163.39-4.74 163.94-3.65L163.94-3.65L163.94-3.65Q164.48-2.56 165.95-2.56L165.95-2.56L165.95-2.56Q167.42-2.56 168.35-3.26L168.35-3.26L168.35-3.26Q169.28-3.97 169.98-5.63L169.98-5.63L169.98-5.63Q171.26-8.58 172.29-14.05L172.29-14.05L172.29-14.05Q173.31-19.52 173.41-21.89L173.41-21.89L173.41-21.89Q173.50-24.26 173.50-26.02L173.50-26.02L173.50-26.02Q173.50-27.78 172.99-28.93L172.99-28.93L172.99-28.93Q172.48-30.08 171.04-30.08L171.04-30.08L171.04-30.08Q169.60-30.08 168.64-29.18L168.64-29.18L168.64-29.18Q167.68-28.29 166.91-26.56ZM235.20 1.28L235.20 1.28L235.20 1.28Q227.46 1.28 227.46-4.74L227.46-4.74L227.46-4.74Q227.46-7.36 228.58-12.45L228.58-12.45L228.58-12.45Q229.70-17.54 230.08-19.58L230.08-19.58L230.08-19.58Q230.98-24.26 230.98-25.73L230.98-25.73L230.98-25.73Q230.98-28.99 228.54-28.99L228.54-28.99L228.54-28.99Q226.94-28.99 225.41-26.78L225.41-26.78L225.41-26.78Q223.87-24.58 223.17-20.16L223.17-20.16L219.20 0L206.72 1.28L210.18-16.13L210.18-16.13Q210.75-19.01 211.26-22.27L211.26-22.27L211.26-22.27Q211.78-25.54 211.78-26.05L211.78-26.05L211.78-26.05Q211.78-28.99 209.60-28.99L209.60-28.99L209.60-28.99Q208.13-28.99 206.53-26.82L206.53-26.82L206.53-26.82Q204.93-24.64 204.03-20.16L204.03-20.16L200.13 0L187.52 1.28L194.24-32.64L204.67-33.92L203.58-27.46L203.58-27.46Q205.25-30.91 208.32-32.42L208.32-32.42L208.32-32.42Q211.39-33.92 216.19-33.92L216.19-33.92L216.19-33.92Q218.94-33.92 220.74-32.58L220.74-32.58L220.74-32.58Q222.53-31.23 223.10-29.06L223.10-29.06L223.10-29.06Q224.19-31.30 226.98-32.61L226.98-32.61L226.98-32.61Q229.76-33.92 233.18-33.92L233.18-33.92L233.18-33.92Q236.61-33.92 238.30-33.18L238.30-33.18L238.30-33.18Q240-32.45 241.02-31.23L241.02-31.23L241.02-31.23Q242.75-28.99 242.75-24.90L242.75-24.90L242.75-24.90Q242.75-20.86 241.02-12.48L241.02-12.48L241.02-12.48Q240.13-8.38 240.13-6.88L240.13-6.88L240.13-6.88Q240.13-5.38 240.99-4.48L240.99-4.48L240.99-4.48Q241.86-3.58 243.14-3.46L243.14-3.46L243.14-3.46Q242.50-1.28 240.29 0L240.29 0L240.29 0Q238.08 1.28 235.20 1.28ZM273.98-10.82L273.98-10.82L273.98-10.82Q275.58-9.73 275.58-7.33L275.58-7.33L275.58-7.33Q275.58-4.93 274.37-3.39L274.37-3.39L274.37-3.39Q273.15-1.86 271.17-0.83L271.17-0.83L271.17-0.83Q267.07 1.28 262.66 1.28L262.66 1.28L262.66 1.28Q258.24 1.28 255.65 0.32L255.65 0.32L255.65 0.32Q253.06-0.64 251.33-2.43L251.33-2.43L251.33-2.43Q247.94-5.82 247.94-12.03L247.94-12.03L247.94-12.03Q247.94-21.70 253.18-27.58L253.18-27.58L253.18-27.58Q258.82-33.92 268.61-33.92L268.61-33.92L268.61-33.92Q274.69-33.92 277.70-31.36L277.70-31.36L277.70-31.36Q279.94-29.44 279.94-26.30L279.94-26.30L279.94-26.30Q279.94-15.04 260.48-15.04L260.48-15.04L260.48-15.04Q260.22-13.38 260.22-11.97L260.22-11.97L260.22-11.97Q260.22-9.02 261.54-7.90L261.54-7.90L261.54-7.90Q262.85-6.78 265.28-6.78L265.28-6.78L265.28-6.78Q267.71-6.78 270.30-7.90L270.30-7.90L270.30-7.90Q272.90-9.02 273.98-10.82ZM260.93-17.79L260.93-17.79L260.93-17.79Q265.47-17.79 268.10-20.61L268.10-20.61L268.10-20.61Q270.72-23.30 270.72-27.58L270.72-27.58L270.72-27.58Q270.72-29.06 270.18-29.86L270.18-29.86L270.18-29.86Q269.63-30.66 268.54-30.66L268.54-30.66L268.54-30.66Q267.46-30.66 266.53-30.24L266.53-30.24L266.53-30.24Q265.60-29.82 264.64-28.42L264.64-28.42L264.64-28.42Q262.27-25.22 260.93-17.79Z" fill="#f5e64e"></path></g></g><style>text {
  font-size: 64px;
  font-family: Arial Black;
  dominant-baseline: central;
  text-anchor: middle;
}</style></svg>